<svg xmlns="http://www.w3.org/2000/svg" width="24" height="24" viewBox="0 0 24 24">
  <path fill="#8FA1B3" d="M12,11 C13.6568542,11 15,9.65685425 15,8 C15,6.34314575 13.6568542,5 12,5 C10.3431458,5 9,6.34314575 9,8 C9,9.65685425 10.3431458,11 12,11 Z M8.66559268,11.7258827 C7.64330049,10.8103785 7,9.4803147 7,8 C7,5.23857625 9.23857625,3 12,3 C14.7614237,3 17,5.23857625 17,8 C17,9.4803147 16.3566995,10.8103785 15.3344073,11.7258827 C18.0878704,12.9901226 20,15.7717604 20,19 L18,19 C18,15.6862915 15.3137085,13 12,13 C9.38756235,13 7.16508423,14.6696153 6.34141142,17 L4.25203497,17 C4.85660473,14.6510818 6.50116246,12.7196708 8.66559268,11.7258827 L8.66559268,11.7258827 Z M4,19 L11,19 L9,17 L12,17 L14,19 L14,21 L4,21 L4,19 Z"/>
</svg>
